<svg width="23" height="20" viewBox="0 0 23 20" fill="none" xmlns="http://www.w3.org/2000/svg">
<path d="M8.625 15.833C9.75732 15.833 10.6787 16.7683 10.6787 17.917C10.6785 19.0656 9.75721 20 8.625 20C7.49279 20 6.57146 19.0656 6.57129 17.917C6.57129 16.7683 7.49268 15.833 8.625 15.833ZM18.4824 15.833C19.6146 15.8332 20.5361 16.7684 20.5361 17.917C20.536 19.0655 19.6145 19.9998 18.4824 20C17.3502 20 16.4289 19.0656 16.4287 17.917C16.4287 16.7683 17.3501 15.833 18.4824 15.833ZM8.625 17.2227C8.24762 17.2227 7.94043 17.5341 7.94043 17.917C7.9406 18.2997 8.24773 18.6113 8.625 18.6113C9.00227 18.6113 9.3094 18.2997 9.30957 17.917C9.30957 17.5341 9.00238 17.2227 8.625 17.2227ZM18.4824 17.2227C18.105 17.2227 17.7979 17.5341 17.7979 17.917C17.798 18.2997 18.1052 18.6113 18.4824 18.6113C18.8596 18.6112 19.1668 18.2996 19.167 17.917C19.167 17.5342 18.8597 17.2228 18.4824 17.2227ZM4.7168 0C5.03265 0 5.30639 0.214744 5.375 0.516602L5.85645 2.63867H22.3262C22.5376 2.63867 22.7369 2.7361 22.8643 2.90137C22.9914 3.06658 23.0316 3.28044 22.9736 3.47949L20.2783 12.7158C20.1957 12.999 19.9316 13.1943 19.6309 13.1943H7.41016C7.03947 13.1953 6.73828 13.4914 6.73828 13.8545C6.73846 14.218 7.04074 14.5137 7.41211 14.5137H19.6309C20.003 14.5137 20.3047 14.8094 20.3047 15.1738C20.3046 15.5381 20.003 15.833 19.6309 15.833H7.41211C6.2976 15.833 5.39081 14.9456 5.39062 13.8545C5.39062 13.0424 5.89326 12.3429 6.60938 12.0381L4.17676 1.31934H0.673828C0.301791 1.31934 0.000239418 1.02435 0 0.660156C0 0.295763 0.301643 5.99085e-07 0.673828 0H4.7168ZM7.95215 11.875H19.1221L21.4326 3.95801H6.15527L7.95215 11.875Z" fill="white"/>
</svg>
